<svg preserveAspectRatio="none" width="100%" height="100%" overflow="visible" style="display: block;" viewBox="0 0 28 28" fill="none" xmlns="http://www.w3.org/2000/svg">
<g id="logo-upd">
<path id="Union" d="M28.0001 27.5581C26.6485 28.0773 24.4523 28.0317 23.2697 25.481L21.0314 20.5239L24.1144 18.9058L28.0001 27.5581ZM14.2238 0.000492085C14.6231 0.00915743 15.0118 0.132611 15.3458 0.356937C15.6798 0.581263 15.9455 0.89742 16.1124 1.26905L22.2755 14.8286L19.0724 16.1372L14.3419 5.58057C14.3285 5.55299 14.3079 5.52943 14.2823 5.51319C14.2567 5.4969 14.2266 5.48877 14.1964 5.48877C14.1664 5.48883 14.137 5.49707 14.1115 5.51319C14.0859 5.5294 14.0653 5.55307 14.0519 5.58057L5.43176 23.0474C4.68488 23.5774 1.30581 25.1355 0.123169 25.8276L12.2843 1.18506C12.4665 0.821174 12.7452 0.516691 13.088 0.307133C13.4309 0.0976338 13.8246 -0.00816886 14.2238 0.000492085Z" fill="var(--fill-0, white)"/>
<path id="Vector" d="M23.4383 15.7907C25.1278 15.0985 26.9862 15.6177 27.9999 17.6943C27.9999 17.6943 3.59008 27.5857 2.87035 27.8314C2.15062 28.0771 0.555005 28.2181 0.123233 27.0388C-0.308539 25.8595 0.481404 25.1077 1.14707 24.7754C1.81273 24.4431 23.4383 15.7907 23.4383 15.7907Z" fill="var(--fill-0, #FFBD3E)"/>
</g>
</svg>
