<svg preserveAspectRatio="none" width="100%" height="100%" overflow="visible" style="display: block;" viewBox="0 0 28 28" fill="none" xmlns="http://www.w3.org/2000/svg">
<g id="logo-upd">
<path id="Union" d="M28.0001 27.5581C26.6486 28.0772 24.4523 28.0325 23.2697 25.4819L21.0314 20.5239L24.1144 18.9058L28.0001 27.5581ZM14.2238 0.000488516C14.623 0.00915104 15.0119 0.132672 15.3458 0.356934C15.6798 0.581245 15.9455 0.897429 16.1124 1.26904L22.2755 14.8286L19.0724 16.1372L14.3419 5.58154C14.3285 5.55389 14.3079 5.53046 14.2823 5.51416C14.2567 5.49785 14.2266 5.48877 14.1964 5.48877C14.1664 5.48882 14.137 5.49796 14.1115 5.51416C14.0858 5.53045 14.0653 5.55386 14.0519 5.58154L5.43176 23.0483C4.68491 23.5784 1.30594 25.1354 0.123169 25.8276L12.2843 1.18604C12.4665 0.821973 12.745 0.517739 13.088 0.308106C13.431 0.0985187 13.8245 -0.00817376 14.2238 0.000488516Z" fill="var(--fill-0, #17191C)"/>
<path id="Vector" d="M23.4383 15.7912C25.1278 15.099 26.9862 15.6182 27.9999 17.6947C27.9999 17.6947 3.59008 27.5862 2.87035 27.8319C2.15062 28.0776 0.555005 28.2186 0.123233 27.0393C-0.308539 25.8599 0.481404 25.1082 1.14707 24.7759C1.81273 24.4436 23.4383 15.7912 23.4383 15.7912Z" fill="var(--fill-0, #FFBD3E)"/>
</g>
</svg>
